<svg width="25" height="12" viewBox="0 0 25 12" fill="none" xmlns="http://www.w3.org/2000/svg">
<path opacity="0.35" fill-rule="evenodd" clip-rule="evenodd" d="M18.9786 1C20.0268 1 20.4139 1.09135 20.799 1.29708C21.1455 1.4822 21.4174 1.75386 21.6027 2.10001C21.8087 2.48469 21.9001 2.87142 21.9001 3.91851V8.41482C21.9001 9.46191 21.8087 9.84864 21.6027 10.2333C21.4174 10.5795 21.1455 10.8511 20.799 11.0363C20.4139 11.242 20.0268 11.3333 18.9786 11.3333H3.79974C2.75155 11.3333 2.36442 11.242 1.97933 11.0363C1.63282 10.8511 1.36088 10.5795 1.17557 10.2333C0.96962 9.84864 0.878174 9.46191 0.878174 8.41482V3.91851C0.878174 2.87142 0.96962 2.48469 1.17557 2.10001C1.36088 1.75386 1.63282 1.4822 1.97933 1.29708C2.36442 1.09135 2.75155 1 3.79974 1H18.9786Z" stroke="white"/>
<path opacity="0.4" d="M23.4016 4.16667V8.16667C24.2072 7.8279 24.731 7.0398 24.731 6.16667C24.731 5.29354 24.2072 4.50545 23.4016 4.16667Z" fill="white"/>
<path d="M4.0908 2.5H18.6875C19.2825 2.5 19.4983 2.56188 19.7158 2.67809C19.9333 2.79429 20.104 2.96482 20.2203 3.1821C20.3366 3.39939 20.3986 3.61491 20.3986 4.20926V8.12408C20.3986 8.71842 20.3366 8.93395 20.2203 9.15123C20.104 9.36852 19.9333 9.53904 19.7158 9.65524C19.4983 9.77145 19.2825 9.83333 18.6875 9.83333H4.0908C3.49584 9.83333 3.28009 9.77145 3.06258 9.65524C2.84507 9.53904 2.67436 9.36852 2.55804 9.15123C2.44171 8.93395 2.37976 8.71842 2.37976 8.12408V4.20926C2.37976 3.61491 2.44171 3.39939 2.55804 3.1821C2.67436 2.96482 2.84507 2.79429 3.06258 2.67809C3.28009 2.56188 3.49584 2.5 4.0908 2.5Z" fill="white"/>
</svg>
