<svg width="44" height="42" viewBox="0 0 44 42" fill="none" xmlns="http://www.w3.org/2000/svg">
<rect opacity="0.01" x="0.321045" width="43.6569" height="42" fill="#D8D8D8"/>
<path fill-rule="evenodd" clip-rule="evenodd" d="M35.065 3.70839C35.5648 3.90885 35.963 4.22484 36.2587 4.65694C36.5539 5.0888 36.7018 5.56668 36.7018 6.09115V35.9091C36.7018 36.4336 36.5541 36.9114 36.2586 37.3431C35.9629 37.7755 35.5647 38.0918 35.0649 38.292C34.7768 38.4154 34.4433 38.4767 34.0642 38.4767C33.3368 38.4767 32.7078 38.2299 32.1771 37.7372L22.1495 27.928L12.122 37.7369C11.5761 38.2454 10.9473 38.5 10.2346 38.5C9.88605 38.5 9.55243 38.4307 9.23434 38.2921C8.7342 38.0919 8.33616 37.7756 8.04061 37.3438C7.74514 36.9115 7.59717 36.4338 7.59717 35.9092V6.09082C7.59717 5.56635 7.74514 5.08848 8.04061 4.65662C8.33616 4.22476 8.7342 3.90836 9.23434 3.70807C9.55275 3.56944 9.88605 3.5 10.2346 3.5H34.0643V3.50033C34.413 3.50033 34.7467 3.56976 35.065 3.70839ZM24.1734 25.7997L33.7916 35.1916V6.46135H10.508V35.1916L20.1261 25.7997L22.1497 23.8338L24.1734 25.7997Z" fill="#AAAAAA"/>
</svg>
