<svg width="28" height="21" viewBox="0 0 28 21" fill="none" xmlns="http://www.w3.org/2000/svg">
<path d="M11.7839 14.09C11.2172 14.09 10.7106 14.0167 10.2639 13.87C9.81724 13.7233 9.42724 13.5133 9.09391 13.24L9.39391 12.58C9.62724 12.7533 9.86057 12.9 10.0939 13.02C10.3339 13.1333 10.5906 13.22 10.8639 13.28C11.1372 13.3333 11.4439 13.36 11.7839 13.36C12.3772 13.36 12.8172 13.25 13.1039 13.03C13.3906 12.81 13.5339 12.5167 13.5339 12.15C13.5339 11.8367 13.4339 11.5967 13.2339 11.43C13.0339 11.2633 12.6839 11.13 12.1839 11.03L11.1339 10.82C10.4872 10.6867 10.0039 10.47 9.68391 10.17C9.37057 9.87 9.21391 9.46333 9.21391 8.95C9.21391 8.53 9.32057 8.16333 9.53391 7.85C9.75391 7.53667 10.0606 7.29333 10.4539 7.12C10.8472 6.94667 11.3039 6.86 11.8239 6.86C12.3239 6.86 12.7806 6.93667 13.1939 7.09C13.6072 7.23667 13.9606 7.45333 14.2539 7.74L13.9639 8.38C13.6506 8.1 13.3206 7.9 12.9739 7.78C12.6339 7.65333 12.2472 7.59 11.8139 7.59C11.2672 7.59 10.8339 7.71 10.5139 7.95C10.2006 8.18333 10.0439 8.50333 10.0439 8.91C10.0439 9.23667 10.1439 9.49333 10.3439 9.68C10.5439 9.86 10.8739 9.99667 11.3339 10.09L12.3939 10.3C13.0739 10.44 13.5739 10.65 13.8939 10.93C14.2139 11.21 14.3739 11.6033 14.3739 12.11C14.3739 12.4967 14.2672 12.84 14.0539 13.14C13.8472 13.44 13.5506 13.6733 13.1639 13.84C12.7772 14.0067 12.3172 14.09 11.7839 14.09ZM15.8244 14V8.98H16.6344V14H15.8244ZM15.7244 7.84V6.93H16.7244V7.84H15.7244ZM18.4072 14V6.64H19.2172V14H18.4072Z" fill="#AAA9B1"/>
<rect x="0.5" y="0.5" width="27" height="20" rx="10" stroke="#E5E4EA"/>
</svg>
