<svg width="44" height="42" viewBox="0 0 44 42" fill="none" xmlns="http://www.w3.org/2000/svg">
<path d="M39.586 32.4683C38.4166 31.4654 37.3928 30.3156 36.5421 29.05C35.6135 27.303 35.0569 25.3951 34.905 23.4383V17.675C34.913 14.6015 33.7542 11.6311 31.6462 9.32164C29.5382 7.01222 26.6261 5.52284 23.4572 5.13333V3.62833C23.4572 3.21526 23.2866 2.8191 22.983 2.52701C22.6794 2.23493 22.2676 2.07083 21.8383 2.07083C21.4089 2.07083 20.9971 2.23493 20.6935 2.52701C20.3899 2.8191 20.2193 3.21526 20.2193 3.62833V5.15667C17.0788 5.57425 14.2019 7.07263 12.1216 9.37429C10.0413 11.676 8.89851 14.6249 8.9049 17.675V23.4383C8.75302 25.3951 8.19642 27.303 7.26777 29.05C6.43208 30.3127 5.42472 31.4624 4.27242 32.4683C4.14307 32.5777 4.03939 32.7122 3.9683 32.8631C3.89721 33.014 3.86033 33.1777 3.86011 33.3433V34.93C3.86011 35.2394 3.98787 35.5362 4.2153 35.755C4.44272 35.9738 4.75117 36.0967 5.0728 36.0967H38.7856C39.1072 36.0967 39.4157 35.9738 39.6431 35.755C39.8705 35.5362 39.9983 35.2394 39.9983 34.93V33.3433C39.9981 33.1777 39.9612 33.014 39.8901 32.8631C39.819 32.7122 39.7153 32.5777 39.586 32.4683ZM6.38251 33.7633C7.5108 32.7147 8.50423 31.5397 9.34147 30.2633C10.5112 28.1534 11.1938 25.8254 11.3424 23.4383V17.675C11.2943 16.3077 11.5327 14.9451 12.0434 13.6683C12.5541 12.3915 13.3266 11.2266 14.315 10.243C15.3034 9.25939 16.4874 8.4772 17.7966 7.94299C19.1057 7.40878 20.5132 7.13348 21.9353 7.13348C23.3573 7.13348 24.7648 7.40878 26.074 7.94299C27.3831 8.4772 28.5671 9.25939 29.5555 10.243C30.5439 11.2266 31.3164 12.3915 31.8271 13.6683C32.3378 14.9451 32.5762 16.3077 32.5281 17.675V23.4383C32.6768 25.8254 33.3593 28.1534 34.5291 30.2633C35.3663 31.5397 36.3597 32.7147 37.488 33.7633H6.38251Z" fill="#AAAAAA"/>
<path d="M21.9898 39.9933C22.7537 39.9764 23.4868 39.7001 24.0593 39.2133C24.6319 38.7265 25.0071 38.0606 25.1185 37.3333H18.7397C18.8543 38.0804 19.247 38.7619 19.8449 39.2512C20.4427 39.7405 21.2049 40.0042 21.9898 39.9933Z" fill="#AAAAAA"/>
</svg>
