<svg width="23" height="12" viewBox="0 0 23 12" fill="none" xmlns="http://www.w3.org/2000/svg">
<path opacity="0.35" fill-rule="evenodd" clip-rule="evenodd" d="M18.9786 1C20.0268 1 20.4139 1.09135 20.799 1.29708C21.1455 1.4822 21.4174 1.75386 21.6027 2.10001C21.8087 2.48469 21.9001 2.87142 21.9001 3.91851V8.41482C21.9001 9.46191 21.8087 9.84864 21.6027 10.2333C21.4174 10.5795 21.1455 10.8511 20.799 11.0363C20.4139 11.242 20.0268 11.3333 18.9786 11.3333H3.79974C2.75155 11.3333 2.36442 11.242 1.97933 11.0363C1.63282 10.8511 1.36088 10.5795 1.17557 10.2333C0.96962 9.84864 0.878174 9.46191 0.878174 8.41482V3.91851C0.878174 2.87142 0.96962 2.48469 1.17557 2.10001C1.36088 1.75386 1.63282 1.4822 1.97933 1.29708C2.36442 1.09135 2.75155 1 3.79974 1H18.9786Z" stroke="black"/>
</svg>
