<svg width="19" height="8" viewBox="0 0 19 8" fill="none" xmlns="http://www.w3.org/2000/svg">
<path d="M2.0908 0.5H16.6875C17.2825 0.5 17.4983 0.561884 17.7158 0.678089C17.9333 0.794293 18.104 0.964819 18.2203 1.1821C18.3366 1.39939 18.3986 1.61491 18.3986 2.20926V6.12408C18.3986 6.71842 18.3366 6.93395 18.2203 7.15123C18.104 7.36852 17.9333 7.53904 17.7158 7.65524C17.4983 7.77145 17.2825 7.83333 16.6875 7.83333H2.0908C1.49584 7.83333 1.28009 7.77145 1.06258 7.65524C0.845065 7.53904 0.674362 7.36852 0.558035 7.15123C0.441709 6.93395 0.379761 6.71842 0.379761 6.12408V2.20926C0.379761 1.61491 0.441709 1.39939 0.558035 1.1821C0.674362 0.964819 0.845065 0.794293 1.06258 0.678089C1.28009 0.561884 1.49584 0.5 2.0908 0.5Z" fill="white"/>
</svg>
