<svg width="18" height="11" viewBox="0 0 18 11" fill="none" xmlns="http://www.w3.org/2000/svg">
<path d="M1.00105 6.66667H2.00209C2.55495 6.66667 3.00314 7.11438 3.00314 7.66667V9.66667C3.00314 10.219 2.55495 10.6667 2.00209 10.6667H1.00105C0.448183 10.6667 0 10.219 0 9.66667V7.66667C0 7.11438 0.448183 6.66667 1.00105 6.66667ZM5.67258 4.66667H6.67363C7.22649 4.66667 7.67467 5.11438 7.67467 5.66667V9.66667C7.67467 10.219 7.22649 10.6667 6.67363 10.6667H5.67258C5.11972 10.6667 4.67154 10.219 4.67154 9.66667V5.66667C4.67154 5.11438 5.11972 4.66667 5.67258 4.66667ZM10.3441 2.33333H11.3452C11.8981 2.33333 12.3462 2.78105 12.3462 3.33333V9.66667C12.3462 10.219 11.8981 10.6667 11.3452 10.6667H10.3441C9.79129 10.6667 9.3431 10.219 9.3431 9.66667V3.33333C9.3431 2.78105 9.79129 2.33333 10.3441 2.33333ZM15.0157 0H16.0167C16.5696 0 17.0178 0.447715 17.0178 1V9.66667C17.0178 10.219 16.5696 10.6667 16.0167 10.6667H15.0157C14.4628 10.6667 14.0146 10.219 14.0146 9.66667V1C14.0146 0.447715 14.4628 0 15.0157 0Z" fill="white"/>
</svg>
