<svg width="16" height="11" viewBox="0 0 16 11" fill="none" xmlns="http://www.w3.org/2000/svg">
<path d="M7.69818 2.28448C9.92523 2.28457 12.0671 3.13868 13.6812 4.67028C13.8027 4.78852 13.997 4.78703 14.1167 4.66693L15.2785 3.4966C15.3391 3.43569 15.3729 3.35318 15.3724 3.26733C15.3719 3.18148 15.3371 3.09937 15.2758 3.03917C11.0395 -1.01306 4.35616 -1.01306 0.119828 3.03917C0.0584612 3.09933 0.0236507 3.18141 0.0230781 3.26726C0.0225195 3.35311 0.0562662 3.43565 0.116834 3.4966L1.27897 4.66693C1.3986 4.78721 1.59304 4.7887 1.71451 4.67028C3.32876 3.13858 5.4709 2.28447 7.69818 2.28448ZM7.69818 6.09206C8.9218 6.09198 10.1017 6.54594 11.0088 7.36571C11.1314 7.48206 11.3247 7.47954 11.4443 7.36003L12.6048 6.1897C12.6659 6.12831 12.6998 6.04503 12.6989 5.9585C12.698 5.87196 12.6624 5.78939 12.6001 5.72926C9.83804 3.16485 5.56064 3.16485 2.79859 5.72926C2.7362 5.78939 2.70063 5.872 2.69979 5.95857C2.69899 6.04513 2.73301 6.1284 2.79425 6.1897L3.9544 7.36003C4.07399 7.47954 4.26723 7.48206 4.38991 7.36571C5.29633 6.54648 6.47536 6.09257 7.69818 6.09206ZM9.92835 8.88514C9.99041 8.82434 10.0246 8.74067 10.0228 8.6539C10.021 8.56712 9.98347 8.48492 9.91897 8.4267C8.63697 7.34443 6.75935 7.34443 5.47735 8.4267C5.41281 8.48487 5.37517 8.56705 5.37333 8.65383C5.37149 8.7406 5.40561 8.82429 5.46764 8.88514L7.47538 10.9071C7.53422 10.9666 7.61447 11 7.69818 11C7.78189 11 7.8621 10.9666 7.92094 10.9071L9.92835 8.88514Z" fill="black"/>
</svg>
