<svg width="16" height="20" viewBox="0 0 16 20" fill="none" xmlns="http://www.w3.org/2000/svg">
<path fill-rule="evenodd" clip-rule="evenodd" d="M15.1002 0.119082C15.375 0.233627 15.5939 0.414194 15.7564 0.661109C15.9187 0.907885 16 1.18096 16 1.48065V18.5195C16 18.8192 15.9188 19.0923 15.7564 19.3389C15.5938 19.586 15.3749 19.7667 15.1002 19.8811C14.9418 19.9517 14.7584 19.9867 14.55 19.9867C14.1502 19.9867 13.8043 19.8456 13.5126 19.5641L8.00004 13.9589L2.48747 19.564C2.18739 19.8545 1.84173 20 1.44992 20C1.25829 20 1.07489 19.9604 0.900024 19.8812C0.625074 19.7668 0.406252 19.586 0.243777 19.3393C0.0813467 19.0923 0 18.8193 0 18.5195V1.48047C0 1.18077 0.0813467 0.9077 0.243777 0.660924C0.406252 0.414148 0.625074 0.233349 0.900024 0.118897C1.07506 0.0396786 1.25829 0 1.44992 0H14.5501V0.000185198C14.7418 0.000185198 14.9252 0.0398638 15.1002 0.119082ZM9.1126 12.7427L14.4001 18.1095V1.6922H1.60016V18.1095L6.88761 12.7427L8.00006 11.6193L9.1126 12.7427Z" fill="black"/>
</svg>
