<svg width="44" height="42" viewBox="0 0 44 42" fill="none" xmlns="http://www.w3.org/2000/svg">
<rect opacity="0.01" x="0.321289" width="43.6569" height="42" fill="#D8D8D8"/>
<path fill-rule="evenodd" clip-rule="evenodd" d="M35.0655 3.70839C35.5653 3.90885 35.9635 4.22484 36.2592 4.65694C36.5543 5.0888 36.7023 5.56668 36.7022 6.09115V35.9091C36.7022 36.4336 36.5546 36.9114 36.2591 37.3431C35.9634 37.7755 35.5652 38.0918 35.0654 38.292C34.7773 38.4154 34.4438 38.4767 34.0647 38.4767C33.3373 38.4767 32.7083 38.2299 32.1776 37.7372L22.15 27.928L12.1225 37.7369C11.5766 38.2454 10.9478 38.5 10.2351 38.5C9.88653 38.5 9.55292 38.4307 9.23483 38.2921C8.73469 38.0919 8.33664 37.7756 8.0411 37.3438C7.74563 36.9115 7.59766 36.4338 7.59766 35.9092V6.09082C7.59766 5.56635 7.74563 5.08848 8.0411 4.65662C8.33664 4.22476 8.73469 3.90836 9.23483 3.70807C9.55324 3.56944 9.88653 3.5 10.2351 3.5H34.0648V3.50033C34.4135 3.50033 34.7471 3.56976 35.0655 3.70839ZM24.1739 25.7997L33.7921 35.1916V6.46135H10.5085V35.1916L20.1266 25.7997L22.1502 23.8338L24.1739 25.7997Z" fill="#AAAAAA"/>
</svg>
