<svg width="53" height="21" viewBox="0 0 53 21" fill="none" xmlns="http://www.w3.org/2000/svg">
<path d="M9.65539 14V6.95H11.9954C12.7754 6.95 13.4354 7.08667 13.9754 7.36C14.5154 7.62667 14.9254 8.02333 15.2054 8.55C15.4854 9.07 15.6254 9.71 15.6254 10.47C15.6254 11.2233 15.4854 11.8633 15.2054 12.39C14.9254 12.9167 14.5154 13.3167 13.9754 13.59C13.4354 13.8633 12.7754 14 11.9954 14H9.65539ZM10.4854 13.29H11.9354C12.8954 13.29 13.6087 13.0567 14.0754 12.59C14.5421 12.1167 14.7754 11.41 14.7754 10.47C14.7754 9.52333 14.5421 8.81667 14.0754 8.35C13.6087 7.88333 12.8954 7.65 11.9354 7.65H10.4854V13.29ZM19.4661 14.09C18.6794 14.09 18.0594 13.8633 17.6061 13.41C17.1528 12.95 16.9261 12.3133 16.9261 11.5C16.9261 10.9733 17.0261 10.5167 17.2261 10.13C17.4261 9.73667 17.7061 9.43333 18.0661 9.22C18.4261 9 18.8394 8.89 19.3061 8.89C19.7661 8.89 20.1528 8.98667 20.4661 9.18C20.7794 9.37333 21.0194 9.65 21.1861 10.01C21.3528 10.3633 21.4361 10.7833 21.4361 11.27V11.57H17.5461V11.06H20.9061L20.7361 11.19C20.7361 10.6567 20.6161 10.24 20.3761 9.94C20.1361 9.64 19.7794 9.49 19.3061 9.49C18.8061 9.49 18.4161 9.66667 18.1361 10.02C17.8561 10.3667 17.7161 10.8367 17.7161 11.43V11.52C17.7161 12.1467 17.8694 12.6233 18.1761 12.95C18.4894 13.27 18.9261 13.43 19.4861 13.43C19.7861 13.43 20.0661 13.3867 20.3261 13.3C20.5928 13.2067 20.8461 13.0567 21.0861 12.85L21.3661 13.42C21.1461 13.6333 20.8661 13.8 20.5261 13.92C20.1928 14.0333 19.8394 14.09 19.4661 14.09ZM24.297 14L22.147 8.98H23.027L24.827 13.4H24.557L26.377 8.98H27.217L25.067 14H24.297ZM30.1418 14.09C29.6951 14.09 29.3051 13.9867 28.9718 13.78C28.6385 13.5667 28.3785 13.2667 28.1918 12.88C28.0118 12.4933 27.9218 12.03 27.9218 11.49C27.9218 10.9433 28.0118 10.4767 28.1918 10.09C28.3785 9.70333 28.6385 9.40667 28.9718 9.2C29.3051 8.99333 29.6951 8.89 30.1418 8.89C30.5951 8.89 30.9851 9.00667 31.3118 9.24C31.6451 9.46667 31.8651 9.77667 31.9718 10.17H31.8518L31.9618 8.98H32.7418C32.7218 9.17333 32.7018 9.37 32.6818 9.57C32.6685 9.76333 32.6618 9.95333 32.6618 10.14V14H31.8518V12.82H31.9618C31.8551 13.2133 31.6351 13.5233 31.3018 13.75C30.9685 13.9767 30.5818 14.09 30.1418 14.09ZM30.3018 13.43C30.7818 13.43 31.1618 13.2667 31.4418 12.94C31.7218 12.6067 31.8618 12.1233 31.8618 11.49C31.8618 10.85 31.7218 10.3667 31.4418 10.04C31.1618 9.70667 30.7818 9.54 30.3018 9.54C29.8285 9.54 29.4485 9.70667 29.1618 10.04C28.8818 10.3667 28.7418 10.85 28.7418 11.49C28.7418 12.1233 28.8818 12.6067 29.1618 12.94C29.4485 13.2667 29.8285 13.43 30.3018 13.43ZM34.4279 14V10.14C34.4279 9.95333 34.4179 9.76333 34.3979 9.57C34.3846 9.37 34.3679 9.17333 34.3479 8.98H35.1279L35.2279 10.08H35.1079C35.2412 9.7 35.4512 9.40667 35.7379 9.2C36.0312 8.99333 36.3846 8.89 36.7979 8.89C37.2179 8.89 37.5579 8.99 37.8179 9.19C38.0846 9.39 38.2646 9.7 38.3579 10.12H38.2079C38.3346 9.74 38.5579 9.44 38.8779 9.22C39.1979 9 39.5712 8.89 39.9979 8.89C40.5512 8.89 40.9679 9.05 41.2479 9.37C41.5279 9.68333 41.6679 10.18 41.6679 10.86V14H40.8579V10.91C40.8579 10.4367 40.7746 10.0933 40.6079 9.88C40.4412 9.66 40.1746 9.55 39.8079 9.55C39.3879 9.55 39.0546 9.69667 38.8079 9.99C38.5679 10.2767 38.4479 10.6633 38.4479 11.15V14H37.6379V10.91C37.6379 10.4367 37.5546 10.0933 37.3879 9.88C37.2212 9.66 36.9546 9.55 36.5879 9.55C36.1679 9.55 35.8379 9.69667 35.5979 9.99C35.3579 10.2767 35.2379 10.6633 35.2379 11.15V14H34.4279ZM43.4072 14V8.98H44.2172V14H43.4072Z" fill="#AAA9B1"/>
<rect x="0.5" y="0.5" width="52" height="20" rx="10" stroke="#E5E4EA"/>
</svg>
