<svg width="91" height="21" viewBox="0 0 91 21" fill="none" xmlns="http://www.w3.org/2000/svg">
<path d="M8.91203 14V6.95H9.74203V10.07H13.992V6.95H14.812V14H13.992V10.78H9.74203V14H8.91203ZM18.9083 14.09C18.1216 14.09 17.5016 13.8633 17.0483 13.41C16.5949 12.95 16.3683 12.3133 16.3683 11.5C16.3683 10.9733 16.4683 10.5167 16.6683 10.13C16.8683 9.73667 17.1483 9.43333 17.5083 9.22C17.8683 9 18.2816 8.89 18.7483 8.89C19.2083 8.89 19.5949 8.98667 19.9083 9.18C20.2216 9.37333 20.4616 9.65 20.6283 10.01C20.7949 10.3633 20.8783 10.7833 20.8783 11.27V11.57H16.9883V11.06H20.3483L20.1783 11.19C20.1783 10.6567 20.0583 10.24 19.8183 9.94C19.5783 9.64 19.2216 9.49 18.7483 9.49C18.2483 9.49 17.8583 9.66667 17.5783 10.02C17.2983 10.3667 17.1583 10.8367 17.1583 11.43V11.52C17.1583 12.1467 17.3116 12.6233 17.6183 12.95C17.9316 13.27 18.3683 13.43 18.9283 13.43C19.2283 13.43 19.5083 13.3867 19.7683 13.3C20.0349 13.2067 20.2883 13.0567 20.5283 12.85L20.8083 13.42C20.5883 13.6333 20.3083 13.8 19.9683 13.92C19.6349 14.0333 19.2816 14.09 18.9083 14.09ZM22.3177 16.16V10.14C22.3177 9.95333 22.3077 9.76333 22.2877 9.57C22.2744 9.37 22.2577 9.17333 22.2377 8.98H23.0177L23.1277 10.17H23.0077C23.1144 9.77667 23.3311 9.46667 23.6577 9.24C23.9844 9.00667 24.3744 8.89 24.8277 8.89C25.2811 8.89 25.6711 8.99333 25.9977 9.2C26.3311 9.40667 26.5911 9.70333 26.7777 10.09C26.9644 10.4767 27.0577 10.9433 27.0577 11.49C27.0577 12.03 26.9644 12.4933 26.7777 12.88C26.5977 13.2667 26.3411 13.5667 26.0077 13.78C25.6744 13.9867 25.2811 14.09 24.8277 14.09C24.3811 14.09 23.9944 13.9767 23.6677 13.75C23.3411 13.5233 23.1244 13.2133 23.0177 12.82H23.1277V16.16H22.3177ZM24.6677 13.43C25.1477 13.43 25.5277 13.2667 25.8077 12.94C26.0944 12.6067 26.2377 12.1233 26.2377 11.49C26.2377 10.85 26.0944 10.3667 25.8077 10.04C25.5277 9.70667 25.1477 9.54 24.6677 9.54C24.1944 9.54 23.8144 9.70667 23.5277 10.04C23.2477 10.3667 23.1077 10.85 23.1077 11.49C23.1077 12.1233 23.2477 12.6067 23.5277 12.94C23.8144 13.2667 24.1944 13.43 24.6677 13.43ZM30.1838 14.09C29.7838 14.09 29.4105 14.0367 29.0638 13.93C28.7172 13.8167 28.4305 13.66 28.2038 13.46L28.4838 12.89C28.7305 13.0833 28.9972 13.2267 29.2838 13.32C29.5772 13.4133 29.8805 13.46 30.1938 13.46C30.5938 13.46 30.8938 13.39 31.0938 13.25C31.3005 13.1033 31.4038 12.9033 31.4038 12.65C31.4038 12.4567 31.3372 12.3033 31.2038 12.19C31.0772 12.07 30.8672 11.9767 30.5738 11.91L29.6438 11.72C29.2172 11.6267 28.8972 11.47 28.6838 11.25C28.4705 11.0233 28.3638 10.7367 28.3638 10.39C28.3638 10.0967 28.4405 9.84 28.5938 9.62C28.7472 9.39333 28.9705 9.21667 29.2638 9.09C29.5572 8.95667 29.9005 8.89 30.2938 8.89C30.6605 8.89 30.9972 8.94667 31.3038 9.06C31.6172 9.16667 31.8772 9.32333 32.0838 9.53L31.7938 10.09C31.5938 9.89667 31.3638 9.75333 31.1038 9.66C30.8505 9.56 30.5872 9.51 30.3138 9.51C29.9205 9.51 29.6238 9.59 29.4238 9.75C29.2305 9.90333 29.1338 10.1067 29.1338 10.36C29.1338 10.5533 29.1938 10.7133 29.3138 10.84C29.4405 10.96 29.6338 11.05 29.8938 11.11L30.8238 11.3C31.2772 11.4 31.6138 11.5567 31.8338 11.77C32.0605 11.9767 32.1738 12.2567 32.1738 12.61C32.1738 12.91 32.0905 13.1733 31.9238 13.4C31.7572 13.62 31.5238 13.79 31.2238 13.91C30.9305 14.03 30.5838 14.09 30.1838 14.09ZM33.6748 14V8.98H34.4848V14H33.6748ZM33.5748 7.84V6.93H34.5748V7.84H33.5748ZM36.2576 14V10.14C36.2576 9.95333 36.2476 9.76333 36.2276 9.57C36.2142 9.37 36.1976 9.17333 36.1776 8.98H36.9576L37.0576 10.08H36.9376C37.0842 9.69333 37.3176 9.4 37.6376 9.2C37.9642 8.99333 38.3409 8.89 38.7676 8.89C39.3609 8.89 39.8076 9.05 40.1076 9.37C40.4142 9.68333 40.5676 10.18 40.5676 10.86V14H39.7576V10.91C39.7576 10.4367 39.6609 10.0933 39.4676 9.88C39.2809 9.66 38.9876 9.55 38.5876 9.55C38.1209 9.55 37.7509 9.69333 37.4776 9.98C37.2042 10.2667 37.0676 10.65 37.0676 11.13V14H36.2576ZM42.317 14V8.98H43.127V14H42.317ZM42.217 7.84V6.93H43.217V7.84H42.217ZM49.5072 14V7.65H47.0172V6.95H52.8172V7.65H50.3372V14H49.5072ZM55.4106 14.09C54.624 14.09 54.004 13.8633 53.5506 13.41C53.0973 12.95 52.8706 12.3133 52.8706 11.5C52.8706 10.9733 52.9706 10.5167 53.1706 10.13C53.3706 9.73667 53.6506 9.43333 54.0106 9.22C54.3706 9 54.784 8.89 55.2506 8.89C55.7106 8.89 56.0973 8.98667 56.4106 9.18C56.724 9.37333 56.964 9.65 57.1306 10.01C57.2973 10.3633 57.3806 10.7833 57.3806 11.27V11.57H53.4906V11.06H56.8506L56.6806 11.19C56.6806 10.6567 56.5606 10.24 56.3206 9.94C56.0806 9.64 55.724 9.49 55.2506 9.49C54.7506 9.49 54.3606 9.66667 54.0806 10.02C53.8006 10.3667 53.6606 10.8367 53.6606 11.43V11.52C53.6606 12.1467 53.814 12.6233 54.1206 12.95C54.434 13.27 54.8706 13.43 55.4306 13.43C55.7306 13.43 56.0106 13.3867 56.2706 13.3C56.5373 13.2067 56.7906 13.0567 57.0306 12.85L57.3106 13.42C57.0906 13.6333 56.8106 13.8 56.4706 13.92C56.1373 14.0333 55.784 14.09 55.4106 14.09ZM58.8201 14V10.14C58.8201 9.95333 58.8101 9.76333 58.7901 9.57C58.7767 9.37 58.7601 9.17333 58.7401 8.98H59.5201L59.6201 10.08H59.5001C59.6334 9.7 59.8434 9.40667 60.1301 9.2C60.4234 8.99333 60.7767 8.89 61.1901 8.89C61.6101 8.89 61.9501 8.99 62.2101 9.19C62.4767 9.39 62.6567 9.7 62.7501 10.12H62.6001C62.7267 9.74 62.9501 9.44 63.2701 9.22C63.5901 9 63.9634 8.89 64.3901 8.89C64.9434 8.89 65.3601 9.05 65.6401 9.37C65.9201 9.68333 66.0601 10.18 66.0601 10.86V14H65.2501V10.91C65.2501 10.4367 65.1667 10.0933 65.0001 9.88C64.8334 9.66 64.5667 9.55 64.2001 9.55C63.7801 9.55 63.4467 9.69667 63.2001 9.99C62.9601 10.2767 62.8401 10.6633 62.8401 11.15V14H62.0301V10.91C62.0301 10.4367 61.9467 10.0933 61.7801 9.88C61.6134 9.66 61.3467 9.55 60.9801 9.55C60.5601 9.55 60.2301 9.69667 59.9901 9.99C59.7501 10.2767 59.6301 10.6633 59.6301 11.15V14H58.8201ZM67.7994 14V8.98H68.6094V14H67.7994ZM67.6994 7.84V6.93H68.6994V7.84H67.6994ZM70.0922 14V13.46L73.4722 9.4L73.4822 9.61H70.0922V8.98H74.2322V9.52L70.8122 13.6L70.8022 13.37H74.3422V14H70.0922ZM75.7677 14V6.64H76.5777V14H75.7677ZM80.5805 14.09C79.7939 14.09 79.1739 13.8633 78.7205 13.41C78.2672 12.95 78.0405 12.3133 78.0405 11.5C78.0405 10.9733 78.1405 10.5167 78.3405 10.13C78.5405 9.73667 78.8205 9.43333 79.1805 9.22C79.5405 9 79.9539 8.89 80.4205 8.89C80.8805 8.89 81.2672 8.98667 81.5805 9.18C81.8939 9.37333 82.1339 9.65 82.3005 10.01C82.4672 10.3633 82.5505 10.7833 82.5505 11.27V11.57H78.6605V11.06H82.0205L81.8505 11.19C81.8505 10.6567 81.7305 10.24 81.4905 9.94C81.2505 9.64 80.8939 9.49 80.4205 9.49C79.9205 9.49 79.5305 9.66667 79.2505 10.02C78.9705 10.3667 78.8305 10.8367 78.8305 11.43V11.52C78.8305 12.1467 78.9839 12.6233 79.2905 12.95C79.6039 13.27 80.0405 13.43 80.6005 13.43C80.9005 13.43 81.1805 13.3867 81.4405 13.3C81.7072 13.2067 81.9605 13.0567 82.2005 12.85L82.4805 13.42C82.2605 13.6333 81.9805 13.8 81.6405 13.92C81.3072 14.0333 80.9539 14.09 80.5805 14.09Z" fill="#AAA9B1"/>
<rect x="0.5" y="0.5" width="90" height="20" rx="10" stroke="#E5E4EA"/>
</svg>
