<svg width="44" height="42" viewBox="0 0 44 42" fill="none" xmlns="http://www.w3.org/2000/svg">
<g clip-path="url(#clip0_107_780)">
<path d="M39.5862 32.4683C38.4168 31.4654 37.393 30.3156 36.5424 29.05C35.6137 27.303 35.0571 25.3951 34.9052 23.4383V17.675C34.9133 14.6015 33.7544 11.6311 31.6464 9.32164C29.5384 7.01222 26.6264 5.52284 23.4574 5.13333V3.62833C23.4574 3.21526 23.2869 2.8191 22.9833 2.52701C22.6797 2.23493 22.2679 2.07083 21.8385 2.07083C21.4091 2.07083 20.9973 2.23493 20.6937 2.52701C20.3901 2.8191 20.2196 3.21526 20.2196 3.62833V5.15667C17.079 5.57425 14.2021 7.07263 12.1218 9.37429C10.0415 11.676 8.89876 14.6249 8.90515 17.675V23.4383C8.75326 25.3951 8.19667 27.303 7.26801 29.05C6.43233 30.3127 5.42496 31.4624 4.27267 32.4683C4.14331 32.5777 4.03964 32.7122 3.96854 32.8631C3.89745 33.014 3.86057 33.1777 3.86035 33.3433V34.93C3.86035 35.2394 3.98812 35.5362 4.21554 35.755C4.44296 35.9738 4.75142 36.0967 5.07304 36.0967H38.7859C39.1075 36.0967 39.4159 35.9738 39.6434 35.755C39.8708 35.5362 39.9985 35.2394 39.9985 34.93V33.3433C39.9983 33.1777 39.9615 33.014 39.8904 32.8631C39.8193 32.7122 39.7156 32.5777 39.5862 32.4683ZM6.38275 33.7633C7.51105 32.7147 8.50447 31.5397 9.34172 30.2633C10.5115 28.1534 11.194 25.8254 11.3427 23.4383V17.675C11.2946 16.3077 11.533 14.9451 12.0436 13.6683C12.5543 12.3915 13.3269 11.2266 14.3153 10.243C15.3036 9.25939 16.4877 8.4772 17.7968 7.94299C19.106 7.40878 20.5135 7.13348 21.9355 7.13348C23.3576 7.13348 24.7651 7.40878 26.0742 7.94299C27.3834 8.4772 28.5674 9.25939 29.5558 10.243C30.5442 11.2266 31.3167 12.3915 31.8274 13.6683C32.3381 14.9451 32.5765 16.3077 32.5284 17.675V23.4383C32.677 25.8254 33.3595 28.1534 34.5293 30.2633C35.3666 31.5397 36.36 32.7147 37.4883 33.7633H6.38275Z" fill="#AAAAAA"/>
<path d="M21.9902 39.9933C22.7542 39.9764 23.4872 39.7001 24.0598 39.2133C24.6324 38.7265 25.0076 38.0606 25.119 37.3333H18.7402C18.8548 38.0804 19.2475 38.7619 19.8454 39.2512C20.4432 39.7405 21.2054 40.0042 21.9902 39.9933Z" fill="#AAAAAA"/>
</g>
<defs>
<clipPath id="clip0_107_780">
<rect width="43.6569" height="42" fill="white" transform="translate(0.161621)"/>
</clipPath>
</defs>
</svg>
