<svg width="16" height="10" viewBox="0 0 16 10" fill="none" xmlns="http://www.w3.org/2000/svg">
<path d="M15.3074 4.30229H2.36462L5.45295 1.19101C5.7235 0.918626 5.7235 0.47676 5.45295 0.204412C5.18239 -0.0681374 4.74375 -0.0681374 4.4736 0.204412L0.202918 4.50662C-0.0676393 4.77901 -0.0676393 5.22091 0.202918 5.49322L4.4736 9.79563C4.60883 9.93194 4.78607 10 4.96327 10C5.14047 10 5.31771 9.93194 5.45295 9.79563C5.7235 9.52324 5.7235 9.08137 5.45295 8.80907L2.36462 5.69763H15.3074C15.6898 5.69763 16 5.38523 16 4.99994C16 4.61465 15.6899 4.30229 15.3074 4.30229Z" fill="white"/>
</svg>
